<?xml version="1.0" encoding="utf-8"?>
<!-- Generator: Adobe Illustrator 26.5.0, SVG Export Plug-In . SVG Version: 6.00 Build 0)  -->
<svg version="1.1" id="Capa_1" xmlns="http://www.w3.org/2000/svg" xmlns:xlink="http://www.w3.org/1999/xlink" x="0px" y="0px"
	 viewBox="0 0 515.01 176.02" style="enable-background:new 0 0 515.01 176.02;" xml:space="preserve">
<style type="text/css">
	.st0{fill-rule:evenodd;clip-rule:evenodd;}
	.st1{fill-rule:evenodd;clip-rule:evenodd;fill:#6C2383;}
	.st2{fill-rule:evenodd;clip-rule:evenodd;fill:#4CAD33;}
	.st3{fill-rule:evenodd;clip-rule:evenodd;fill:#EC6807;}
</style>
<path class="st0" d="M104.52,15.36c34.63,0,62.79,27.73,63.48,62.2l0.02,63.35h-29.82l0-62.14c-0.05-18.56-15.11-33.58-33.68-33.58
	c-18.57,0-33.63,15.03-33.68,33.58l0,62.14H41.02l0.02-63.35C41.73,43.09,69.88,15.36,104.52,15.36"/>
<path class="st0" d="M219.8,78.85c0-35.07,28.43-63.49,63.49-63.49c20.24,0,38.26,9.47,49.89,24.21l-23.46,18.4
	c-6.17-7.8-15.71-12.8-26.43-12.8c-18.6,0-33.68,15.08-33.68,33.68s15.08,33.68,33.68,33.68c10.71,0,20.26-5,26.43-12.8l23.46,18.4
	c-11.63,14.75-29.65,24.21-49.89,24.21C248.23,142.35,219.8,113.92,219.8,78.85"/>
<path class="st0" d="M449.51,45.18c18.6,0,33.68,15.08,33.68,33.68c0,8.56-3.19,16.37-8.45,22.31c2.75,9.02,1.25,17.32-1.8,23.56
	c-0.93-7.62-3.96-12.18-9.09-15.39c-4.35,2.05-9.21,3.2-14.35,3.2c-18.6,0-33.68-15.08-33.68-33.68S430.91,45.18,449.51,45.18
	M449.52,15.36c35.07,0,63.49,28.43,63.49,63.49c0,35.07-28.43,63.49-63.49,63.49c-35.07,0-63.49-28.43-63.49-63.49
	C386.02,43.79,414.45,15.36,449.52,15.36z"/>
<path class="st1" d="M377.87,9.16c-1.55,6.39-2.29,12.96-2.2,19.53l-30.45,0.1c-0.09-9.02,0.94-18.02,3.06-26.79l7.53,1.82
	L377.87,9.16z"/>
<rect x="345.3" y="36.33" class="st0" width="29.82" height="104.57"/>
<path class="st2" d="M211.95,9.16c-1.55,6.39-2.29,12.96-2.2,19.53l-30.45,0.1c-0.09-9.02,0.94-18.02,3.06-26.79l7.53,1.82
	L211.95,9.16z"/>
<rect x="179.37" y="36.33" class="st0" width="29.82" height="104.57"/>
<path class="st3" d="M32.66,9.16c-1.55,6.39-2.29,12.96-2.2,19.53l-30.45,0.1C-0.09,19.77,0.94,10.76,3.06,2l7.53,1.82L32.66,9.16z"
	/>
<rect x="0.08" y="36.33" class="st0" width="29.82" height="104.57"/>
<path d="M496.79,175.53h15.63v-2.46h-12.8v-6.18h12.15v-2.46h-12.15v-5.54h12.53v-2.46h-15.37V175.53z M479.98,169.03
	c0,2.49,0.13,6.99,6.51,6.99c3.61,0,6.32-1.66,6.32-6.64v-12.96h-2.84v13.55c0,2.44-1.23,3.8-3.53,3.8c-2.38,0-3.77-1.26-3.77-3.83
	v-0.91H479.98z M476.23,175.53h3.24l-8.65-19.11h-3.24l-8.65,19.11h3.05l2.44-5.57h9.37L476.23,175.53z M472.75,167.5h-7.25
	l3.59-8.46L472.75,167.5z M449.94,175.53h2.84v-16.65h7.23v-2.46h-17.29v2.46h7.23V175.53z M437.23,175.53h3.29v-19.11h-2.84v15.21
	h-0.05l-12.29-15.21h-3.29v19.11h2.84v-15.2h0.05L437.23,175.53z M416.03,165.98c0,5.06-3.43,7.58-7.79,7.58
	c-4.36,0-7.79-2.52-7.79-7.58c0-5.06,3.43-7.58,7.79-7.58C412.6,158.4,416.03,160.92,416.03,165.98z M397.61,165.98
	c0,4.9,2.95,10.04,10.63,10.04c7.68,0,10.63-5.14,10.63-10.04c0-4.9-2.94-10.04-10.63-10.04
	C400.56,155.94,397.61,161.08,397.61,165.98z M382.94,172.27l-7.58-15.85h-3.99v19.11h2.84v-15.53h0.05l7.42,15.53h2.52l7.44-15.85
	h0.05v15.85h2.84v-19.11h-3.93L382.94,172.27z M349.24,169.49h9.4v-2.78h-9.4V169.49z M120.68,169.49h9.4v-2.78h-9.4V169.49z
	M333.1,175.53h3.29v-19.11h-2.84v15.21h-0.05l-12.29-15.21h-3.29v19.11h2.84v-15.2h0.05L333.1,175.53z M302.5,155.16h2.14
	l3.51-3.75h-3.35L302.5,155.16z M311.9,165.98c0,5.06-3.43,7.58-7.79,7.58s-7.79-2.52-7.79-7.58c0-5.06,3.43-7.58,7.79-7.58
	S311.9,160.92,311.9,165.98z M293.48,165.98c0,4.9,2.94,10.04,10.63,10.04c7.68,0,10.63-5.14,10.63-10.04
	c0-4.9-2.95-10.04-10.63-10.04C296.42,155.94,293.48,161.08,293.48,165.98z M287.32,175.53h2.84v-19.11h-2.84V175.53z M283.81,163.3
	c-0.48-5.73-5.75-7.36-9.58-7.36c-6.53,0-10.01,4.42-10.01,9.99c0,7.44,5.22,10.09,10.04,10.09c5.46,0,9.1-3.56,9.56-7.79h-2.84
	c-0.8,3.72-3.35,5.33-6.69,5.33c-5.27,0-7.23-3.72-7.23-7.33c0-5.22,2.86-7.82,7.39-7.82c4.02,0,6.1,2.25,6.53,4.9H283.81z
	M260.07,175.53h3.24l-8.65-19.11h-3.24l-8.65,19.11h3.05l2.44-5.57h9.37L260.07,175.53z M256.59,167.5h-7.25l3.59-8.46
	L256.59,167.5z M224.92,175.53h17.59v-2.46h-13.92l13.71-14.19v-2.46h-16.41v2.46h12.69l-13.65,14.11V175.53z M219.41,175.53h2.84
	v-19.11h-2.84V175.53z M202.41,175.53h14.46v-2.46h-11.62v-16.65h-2.84V175.53z M197.11,175.53h3.24l-8.65-19.11h-3.24l-8.65,19.11
	h3.05l2.44-5.57h9.37L197.11,175.53z M193.63,167.5h-7.25l3.59-8.46L193.63,167.5z M163.14,175.53h15.63v-2.46h-12.8v-6.18h12.15
	v-2.46h-12.15v-5.54h12.53v-2.46h-15.37V175.53z M145.77,164.96v-6.08h8c2.27,0,3.37,1.23,3.37,3.05c0,1.34-0.67,3.03-3.45,3.03
	H145.77z M142.93,175.53h2.84v-8.11h7.42c2.36,0,3.51,1.04,3.69,4.47c0.13,2.3,0.13,3.11,0.59,3.64h3
	c-0.64-0.75-0.75-1.63-0.91-5.19c-0.11-2.25-1.1-3.83-2.78-4.07v-0.05c2.09-0.67,3.21-2.38,3.21-4.71c0-2.44-1.39-5.09-5.22-5.09
	h-11.83V175.53z M106.15,165.98c0,5.06-3.43,7.58-7.79,7.58s-7.79-2.52-7.79-7.58c0-5.06,3.43-7.58,7.79-7.58
	S106.15,160.92,106.15,165.98z M87.73,165.98c0,4.9,2.94,10.04,10.63,10.04c7.68,0,10.63-5.14,10.63-10.04
	c0-4.9-2.94-10.04-10.63-10.04C90.67,155.94,87.73,161.08,87.73,165.98z M71.59,154.95c0.19-0.94,0.64-1.2,1.23-1.2
	c0.64,0,1.36,0.24,2.11,0.56c0.8,0.35,1.66,0.64,2.62,0.64c1.82,0,2.89-1.45,3.05-3.29h-1.58c-0.19,0.94-0.64,1.2-1.23,1.2
	c-0.64,0-1.37-0.24-2.11-0.56c-0.8-0.35-1.66-0.64-2.62-0.64c-0.91,0-1.63,0.35-2.14,0.96c-0.51,0.59-0.83,1.39-0.91,2.33H71.59z
	M81.25,175.53h3.29v-19.11h-2.84v15.21h-0.05l-12.29-15.21h-3.29v19.11h2.84v-15.2h0.05L81.25,175.53z M47.12,175.53h15.63v-2.46
	h-12.8v-6.18h12.15v-2.46H49.96v-5.54h12.53v-2.46H47.12V175.53z M27.63,169.24c0,5.27,4.47,6.77,8.78,6.77
	c3.85,0,8.22-1.39,8.22-6.26c0-3.91-4.26-4.63-5.76-4.9l-4.68-0.8c-2.36-0.4-3.13-1.34-3.13-2.52c0-2.25,2.36-3.13,4.44-3.13
	c4.58,0,5.43,2.03,5.67,3.53h2.84c-0.27-4.6-4.31-6-8.14-6c-4.9,0-7.66,2.33-7.66,5.81c0,3.72,3.4,4.63,5.68,5.01l4.34,0.72
	c2.19,0.38,3.56,1.1,3.56,2.84c0,2.09-2.14,3.24-5.17,3.24c-2.89,0-6.1-0.88-6.16-4.31H27.63z M22.06,175.53h2.84v-19.11h-2.84
	V175.53z M3.35,173.07v-14.19H9.7c4.93,0,6.02,3.51,6.02,6.88c0,3.4-0.83,7.31-5.49,7.31H3.35z M0.51,175.53h9.85
	c5.86,0,8.19-4.5,8.19-9.82c0-5.54-2.62-9.29-8.35-9.29H0.51V175.53z"/>
</svg>
